<?xml version="1.0" standalone="no"?><!DOCTYPE svg PUBLIC "-//W3C//DTD SVG 1.1//EN" "http://www.w3.org/Graphics/SVG/1.1/DTD/svg11.dtd"><svg t="1514514599579" class="icon" style="" viewBox="0 0 1024 1024" version="1.1" xmlns="http://www.w3.org/2000/svg" p-id="1843" xmlns:xlink="http://www.w3.org/1999/xlink" width="19" height="19"><defs><style type="text/css"></style></defs><path d="M981.333333 428.8c0-189.866667-209.066667-339.2-467.2-339.2-258.133333 0-467.2 153.6-467.2 343.466667 0 115.2 76.8 221.866667 206.933333 285.866667 0 0 0 0 0 0l0 204.8c0 10.666667 6.4 23.466667 17.066667 27.733333 4.266667 2.133333 10.666667 4.266667 14.933333 4.266667 6.4 0 12.8-2.133333 17.066667-4.266667l238.933333-179.2c4.266667-2.133333 8.533333-4.266667 10.666667-6.4C797.866667 757.333333 981.333333 610.133333 981.333333 428.8zM526.933333 710.4C526.933333 710.4 526.933333 712.533333 526.933333 710.4c-2.133333 0-2.133333 0-4.266667 0-21.333333 2.133333-202.666667 155.733333-202.666667 155.733333L320 725.333333c2.133333-29.866667-4.266667-46.933333-32-59.733333-110.933333-53.333333-174.933333-138.666667-174.933333-230.4 0-153.6 181.333333-279.466667 403.2-279.466667C738.133333 153.6 917.333333 277.333333 917.333333 433.066667 917.333333 582.4 742.4 710.4 526.933333 710.4z" p-id="1844" fill="#8a8a8a"></path><path d="M305.066667 437.333333m-59.733333 0a2.8 2.8 0 1 0 119.466667 0 2.8 2.8 0 1 0-119.466667 0Z" p-id="1845" fill="#8a8a8a"></path><path d="M516.266667 437.333333m-59.733333 0a2.8 2.8 0 1 0 119.466667 0 2.8 2.8 0 1 0-119.466667 0Z" p-id="1846" fill="#8a8a8a"></path><path d="M725.333333 437.333333m-59.733333 0a2.8 2.8 0 1 0 119.466667 0 2.8 2.8 0 1 0-119.466667 0Z" p-id="1847" fill="#8a8a8a"></path></svg>